<svg xmlns="http://www.w3.org/2000/svg" width="64" height="64" viewBox="0 0 64 64">
  <defs>
    <linearGradient id="logoGrad" x1="0%" y1="0%" x2="100%" y2="100%">
      <stop offset="0%" style="stop-color:#667eea;stop-opacity:1" />
      <stop offset="100%" style="stop-color:#764ba2;stop-opacity:1" />
    </linearGradient>
    <filter id="shadow" x="-50%" y="-50%" width="200%" height="200%">
      <feDropShadow dx="2" dy="2" stdDeviation="3" flood-color="#000" flood-opacity="0.3"/>
    </filter>
  </defs>
  
  <!-- 背景圆形 -->
  <circle cx="32" cy="32" r="30" fill="url(#logoGrad)" filter="url(#shadow)"/>
  
  <!-- 包裹主体 -->
  <rect x="16" y="20" width="32" height="24" rx="4" fill="#fff" opacity="0.95"/>
  <rect x="16" y="20" width="32" height="24" rx="4" fill="none" stroke="#667eea" stroke-width="2"/>
  
  <!-- 包裹绑带 -->
  <rect x="14" y="30" width="36" height="4" fill="#667eea" opacity="0.8"/>
  <rect x="30" y="18" width="4" height="28" fill="#667eea" opacity="0.8"/>
  
  <!-- 追踪信息条 -->
  <rect x="20" y="24" width="16" height="2" fill="#667eea" rx="1"/>
  <rect x="20" y="27" width="12" height="2" fill="#667eea" rx="1"/>
  <rect x="20" y="36" width="14" height="2" fill="#667eea" rx="1"/>
  <rect x="20" y="39" width="10" height="2" fill="#667eea" rx="1"/>
  
  <!-- GPS定位点 -->
  <circle cx="42" cy="26" r="4" fill="#ff6b6b"/>
  <circle cx="42" cy="26" r="2" fill="#fff"/>
  <circle cx="42" cy="26" r="6" fill="none" stroke="#ff6b6b" stroke-width="1" opacity="0.5"/>
  
  <!-- 追踪路径 -->
  <path d="M 42 26 Q 50 20 56 12" stroke="#ff6b6b" stroke-width="2" fill="none" opacity="0.7" stroke-dasharray="3,2"/>
  
  <!-- 字母 T -->
  <text x="24" y="52" font-family="Arial, sans-serif" font-size="8" font-weight="bold" fill="#667eea">T</text>
</svg> 